# xmcd CD database file
# Copyright (C) 1993-1996 Ti Kan
#
# Track frame offsets:
#	183
#	11855
#	22525
#	33843
#	47668
#	58348
#	69030
#	79288
#	90018
#	101758
#	111630
#	122880
#	133603
#	146693
#
# Disc length: 2123 seconds
#
# Revision: 2
# Processed by: cddbd v1.4PL0 Copyright (c) Steve Scherf et al.
# Submitted via: Gronk 1.4
#
DISCID=b608490e
DTITLE=Patsy Cline - Walkin' After Midnight
DYEAR=1900
DGENRE=country
TTITLE0=Walkin' After Midnight
TTITLE1=Gotta Lot of Rhythm in my Soul
TTITLE2=Just Out of Reach
TTITLE3=A Church, A Courtroom, and then Goodbye
TTITLE4=I Don't Wanta
TTITLE5=Stop, Look, and Listen
TTITLE6=Three Cigarettes in an Ashtray
TTITLE7=I Can See an Angel
TTITLE8=A Poor Man's Roses
TTITLE9=I'm Blue Again
TTITLE10=Cry Not For Me
TTITLE11=Honky Tonk Merry Go Round
TTITLE12=Life's Railway to Heaven
TTITLE13=Just a Closer Walk with Thee
EXTD=
EXTT0=
EXTT1=
EXTT2=
EXTT3=
EXTT4=
EXTT5=
EXTT6=
EXTT7=
EXTT8=
EXTT9=
EXTT10=
EXTT11=
EXTT12=
EXTT13=
PLAYORDER=
